<?xml version="1.0" encoding="UTF-8"?>
<svg id="_레이어_1" xmlns="http://www.w3.org/2000/svg" version="1.1" viewBox="0 0 31.9 32">
  <!-- Generator: Adobe Illustrator 29.0.1, SVG Export Plug-In . SVG Version: 2.1.0 Build 192)  -->
  <defs>
    <style>
      .st0 {
        fill: #964d37;
      }

      .st1 {
        fill: #fff;
      }
    </style>
  </defs>
  <g>
    <path class="st1" d="M15.9,30.8c-8.2,0-14.8-6.7-14.8-14.8S7.8,1.2,15.9,1.2s14.8,6.7,14.8,14.8-6.7,14.8-14.8,14.8Z"/>
    <path class="st0" d="M15.9,1.8c7.8,0,14.2,6.3,14.2,14.2s-6.3,14.2-14.2,14.2S1.8,23.8,1.8,16,8.1,1.8,15.9,1.8M15.9.5C7.4.5.4,7.5.4,16s7,15.5,15.5,15.5,15.5-7,15.5-15.5S24.5.5,15.9.5h0Z"/>
  </g>
  <g>
    <path class="st0" d="M15.3,29.2h2c7.2-.7,12.5-7.2,11.8-14.4-.7-7.2-7.2-12.5-14.4-11.8-7.2.7-12.5,7.2-11.8,14.4.4,3.5,2,6.7,4.8,8.9,2.2,1.8,4.9,2.8,7.7,3h0ZM28.1,14.8c.5,4.5-1.6,8.7-5.1,11.2-2,1.4-4.7.7-6.4-1.1-3.8-4.3-6.3-9.2-7.7-14.7,1.4-.4,6.1-1.9,12.1-4.2.7-.3,1.5-.2,2.1.2,2.7,2,4.6,5,5,8.6ZM10.3,19.6c-.4-1-1.5-1.6-1.7-1.6-1.3-.6-1.4-1.6-1.4-1.6h0c0-.8,0-1.4.4-1.9.4-.5,1-.7,1.4-.8,1.1,3.2,2.6,6.1,4.6,8.9.7.9.4,2.3-.7,2.3s-.7,0-.7-.1c-1.6-.6-1.4-2.1-1.4-2.2h0c.1-1.8-.3-2.8-.4-3h-.1ZM14.7,3.9h1.8c1.1,0,2.2.3,3.3.6.4,0,.4.7,0,.9-5.5,2.1-9.7,3.4-11.1,3.8,0-.4-.2-.8-.3-1.3h0c-.1-.8.2-1.6.8-2.1,1.6-1,3.4-1.7,5.4-1.9h.1Z"/>
    <path class="st0" d="M17.4,12.6c.4,0,.7-.4.6-.8,0-.4-.4-.7-.8-.6-.4,0-.7.4-.6.8,0,.4.4.7.8.6Z"/>
    <path class="st0" d="M12.8,16.6c.5-.1,1.3-.4,2.4-.7s2.3.2,2.8,1.2c-1.3.4-2.7.8-4,1.2,0,0,0,.1.1.2.2.4.7.6,1.1.5,1.1-.3,2.1-.6,3.2-1l1.4,3.4c.3.7,1,1.2,1.8,1.2s.6,0,.8-.1l.8-.3c.3-.1.4-.4.2-.7-.1-.2-.4-.3-.6-.2l-.8.3c-.5.2-1.1,0-1.3-.6l-1.8-4.2c-.7-1.6-2.4-2.4-4-1.9-1.2.4-2.1.6-2.5.7.1.3.2.6.4.9h0Z"/>
    <path class="st0" d="M26.2,12c-.1-.3-.2-.5-.3-.8,0,0-.1-.1-.2,0-1.9.8-3.7,1.5-5.6,2.1h0c.1.3.3.6.4.9,1.9-.7,3.9-1.4,5.8-2.2h0Z"/>
    <path class="st0" d="M22.3,16.7c1.3-.5,2.7-1,4-1.5.5-.2.7-.8.5-1.3-1.6.7-3.3,1.3-5,1.9.1.3.3.6.4.9h.1Z"/>
  </g>
</svg>